<?xml version="1.0" encoding="UTF-8" standalone="no"?>
<!DOCTYPE svg PUBLIC "-//W3C//DTD SVG 1.1//EN" "http://www.w3.org/Graphics/SVG/1.1/DTD/svg11.dtd">
<svg width="100%" height="100%" viewBox="0 0 300 275" version="1.1" xmlns="http://www.w3.org/2000/svg" xmlns:xlink="http://www.w3.org/1999/xlink" xml:space="preserve" xmlns:serif="http://www.serif.com/" style="fill-rule:evenodd;clip-rule:evenodd;stroke-linejoin:round;stroke-miterlimit:2;">
    <g id="New">
        <g>
            <path d="M127.244,26.001L127.244,250.626C127.244,259.254 120.239,266.259 111.611,266.259L23.023,266.259C14.394,266.259 7.389,259.254 7.389,250.626L7.389,26.001C7.389,17.373 14.394,10.368 23.023,10.368L111.611,10.368C120.239,10.368 127.244,17.373 127.244,26.001Z" style="fill:rgb(12,62,127);"/>
            <g transform="matrix(1,0,0,1.03453,0,-3.06275)">
                <path d="M107.127,52.471L107.127,79.75C107.127,84.688 102.979,88.697 97.87,88.697L38.232,88.697C33.124,88.697 28.976,84.688 28.976,79.75L28.976,52.471C28.976,47.533 33.124,43.524 38.232,43.524L97.87,43.524C102.979,43.524 107.127,47.533 107.127,52.471Z" style="fill:rgb(10,193,180);"/>
            </g>
            <g transform="matrix(1,0,0,1.03453,0,68.9258)">
                <path d="M107.127,52.471L107.127,79.75C107.127,84.688 102.979,88.697 97.87,88.697L38.232,88.697C33.124,88.697 28.976,84.688 28.976,79.75L28.976,52.471C28.976,47.533 33.124,43.524 38.232,43.524L97.87,43.524C102.979,43.524 107.127,47.533 107.127,52.471Z" style="fill:rgb(13,111,250);"/>
            </g>
            <g transform="matrix(1,0,0,1.03453,0,141.581)">
                <path d="M107.127,52.471L107.127,79.75C107.127,84.688 102.979,88.697 97.87,88.697L38.232,88.697C33.124,88.697 28.976,84.688 28.976,79.75L28.976,52.471C28.976,47.533 33.124,43.524 38.232,43.524L97.87,43.524C102.979,43.524 107.127,47.533 107.127,52.471Z" style="fill:rgb(225,230,234);"/>
            </g>
        </g>
        <g transform="matrix(1,0,0,1.07965,0.608069,-14.3317)">
            <path d="M190.205,151.7C201.472,151.7 239.237,201.271 286.456,246.121C290.101,249.497 287.493,259.953 280.552,259.953L209.752,260.109C204.308,259.65 139.778,198.856 139.778,193.199L139.778,161.949C139.778,156.292 144.737,151.7 150.844,151.7L190.205,151.7Z" style="fill:rgb(11,74,158);"/>
        </g>
        <g transform="matrix(1,0,0,-1.07965,0.608069,291.09)">
            <path d="M190.205,151.7C201.472,151.7 239.237,201.271 286.456,246.121C290.101,249.497 287.493,259.953 280.552,259.953L209.752,260.109C204.308,259.65 139.778,198.856 139.778,193.199L139.778,161.949C139.778,156.292 144.737,151.7 150.844,151.7L190.205,151.7Z" style="fill:rgb(16,169,176);"/>
        </g>
    </g>
</svg>
